<svg id="Lag_1" data-name="Lag 1" xmlns="http://www.w3.org/2000/svg" viewBox="0 0 301.54 179"><defs><style>.cls-1{fill:#eec743;}</style></defs><title>logo_design_portfolio_second</title><path class="cls-1" d="M130.12,20,112.65,54.91s-18.07-9.64-34.34-9.64c-11.75,0-16.57,2.11-16.57,9.34,0,8.13,10.84,10.54,24.1,14.76,20.48,6.33,47,17.77,47,49.4,0,45.48-41.57,52.71-73.19,52.71C22.29,171.48,0,150.69,0,150.69l21.69-36.45S42.77,132,59.94,132c7.53,0,16.57-.9,16.57-11.14,0-11.14-16.87-12-34.34-21.08-15.66-8.13-31.33-19-31.33-42.17,0-31.63,26.81-49.7,67.47-49.7C108.13,7.92,130.12,20,130.12,20Z"/><path class="cls-1" d="M211.35,66.27a39.17,39.17,0,0,0-22.25,7.37V6H147.35V171.76H189.1V114.3c0-6.61,7.2-13.35,14.26-13.35,7.73,0,11.9,6.88,11.9,13.35v57.47H257V105.58C257,78.57,233.34,66.27,211.35,66.27Z"/><circle class="cls-1" cx="286.82" cy="158.65" r="14.72"/></svg>