<svg id="Lag_1" data-name="Lag 1" xmlns="http://www.w3.org/2000/svg" viewBox="0 0 301.54 179"><defs><style>.cls-1{fill:#172134;}</style></defs><title>logo_design_portfolio_second</title><path class="cls-1" d="M94,25.5C92.92,31,91.7,36,91,41.1A84.44,84.44,0,0,0,98.67,91c16.61,34.07,43.75,54.95,81.1,61.51,24,4.21,46.19-1.39,66.16-15.49l2.17-1.52c.1.18.24.35.21.4-6.19,10.58-12.61,21-22.68,28.47a71.41,71.41,0,0,1-38.33,14.33c-32.68,2.3-60.9-8.36-84.58-30.64C87.53,133.77,77,116.45,73.22,95.63S72.29,55.48,85,38.11C88,34.09,90.83,30,94,25.5Z"/><path class="cls-1" d="M250.46,88.08c-1.34,2.24-2.55,4.57-4.05,6.7-8.94,12.7-20.57,21.42-36.3,23.56a64.44,64.44,0,0,1-35.4-5.09c-23-10.27-38.89-27.16-45.24-51.81-5-19.58-.06-37,13.87-51.73.09-.09.26-.11.2-.09-.7,4.74-1.87,9.56-2.05,14.42-1,27,11.3,47,32.91,61.95a70.32,70.32,0,0,0,38.93,12.63,60.45,60.45,0,0,0,34.75-9.78l1.85-1.16Z"/><path class="cls-1" d="M252.49,48.17c-4.19,10.22-11,16.58-21.49,18.64-9.45,1.87-18.46,0-27.07-3.91-11.59-5.27-21-13-26.7-24.66-6.58-13.38-3.75-26.92,6.06-38,.08-.1.26-.11.56-.22A38,38,0,0,0,187,25.79c8.14,16.27,21,26.52,39.28,29,8.5,1.15,16.51-1,23.91-5.31Z"/></svg>