<svg id="Lag_1" data-name="Lag 1" xmlns="http://www.w3.org/2000/svg" viewBox="0 0 301.54 179"><defs><style>.cls-1{fill:#172134;}</style></defs><title>logo_design_portfolio_second</title><path class="cls-1" d="M240.54,101.6a44.8,44.8,0,0,0-19.71,4.59c-2-4-4.08-7.56-4.42-10.19-.38-3.06-.85-4.93-.38-8.58s2.59-8.83,2.59-9.26-.47-2.25-4.84-2.29-8.16.85-8.58,2a48.78,48.78,0,0,0-1.83,6.5c-.76,4-8.75,18.14-13.29,25.57-1.49-2.89-2.76-5.44-3-7.48-.38-3.06-.85-4.93-.38-8.58s2.59-8.83,2.59-9.26-.47-2.25-4.84-2.29-8.16.85-8.58,2-.89,3.87-1.83,6.5-11.51,26.25-14.27,32.41c-1.4,3.14-2.63,5.65-3.53,7.35s0,.13-.13.3l-1.19,2.25v0c-.59,1.06-1.23,2.08-1.53,2.08s-.64-2.85.08-6.75c1.57-8.2,5.39-21,5.35-21.45,0-.21.72-2.46-2.46-3.61a3.87,3.87,0,0,0-4.46.76c-.25,0-.47.68-.47.68s3.44-14.4-6.58-14.4c-6.29,0-15,6.84-19.24,13.08-2.72,1.49-8.5,4.63-14.61,8-2.34,1.27-4.76,2.63-7.05,3.87l-.47-.51c-12.15-13-34.62-22.13-33.68-39.54.34-6.33,2.55-23,43.16-43.24,33.26-16.57,59.89-12,64.52-1.91,6.58,14.44-14.23,41.29-48.8,45.15-13.17,1.49-20.09-3.61-21.83-5.52s-2.08-2.08-2.76-1.7c-1.1.59-.42,2.38,0,3.44,1,2.68,5.27,7.43,12.49,9.81,6.33,2.08,21.79,3.23,40.48-4,20.94-8.11,37.29-30.62,32.49-49.44C184.65,8.79,152.87,2.5,122.84,13.16,105,19.54,85.59,29.48,71.66,42.52,55.1,58,52.46,71.48,53.57,77.09c3.87,20,31.43,33,42.48,42.69l-1.53.85C89,123.35,68,134.35,62.7,146c-5.95,13.17.93,22.64,5.52,23.91,14.19,4,28.71-3.14,36.57-14.82s6.88-26.84,3.27-33.77l-.13-.25,4.33-2.55c2.8-1.66,5.56-3.19,8-4.5a52.88,52.88,0,0,0-2.85,14.44c-.59,7.48,2.46,17.16,6.5,21a7.19,7.19,0,0,0,5.22,1.7c4.67,0,6.8-3.87,9.13-8.5,2.89-5.65,5.44-12.19,5.44-12.19s-3.19,17.71,5.52,17.71c3.19,0,6.37-4.12,7.82-6.24v0s.08-.13.25-.42c.34-.51.51-.81.51-.81v-.08c1.27-2.21,4.12-7.26,8.37-15.63,5.48-10.79,10.75-24.3,10.75-24.3a77.53,77.53,0,0,0,2.08,8.75c.93,3.23,3,6.75,4.54,10.19-1.27,1.78-2,2.8-2,2.8l0,0c-1,1.36-2.17,2.8-3.36,4.25-4.33,5.18-9.51,11.09-10.19,12.79-.81,2-.64,3.48.93,4.67,1.15.85,3.19,1,5.35.85a23.84,23.84,0,0,0,8-1.83,27.66,27.66,0,0,0,6.88-3.61,15.32,15.32,0,0,0,6.58-13.55,27.24,27.24,0,0,0-2.51-9.56c.38-.55.76-1.1,1.15-1.7a179.26,179.26,0,0,0,11.89-20.6,77.53,77.53,0,0,0,2.08,8.75,61.39,61.39,0,0,0,3.87,8.75c-6.29,5.14-10.24,11.09-11.6,15-2.51,7.22-.55,10.49,3.14,11.26,1.66.34,4-.42,5.82-1.19a26.35,26.35,0,0,0,7.35-3.78c4.25-3.14,8.33-7.52,8.11-13.42a25.73,25.73,0,0,0-1.83-7.94c5.35-2.21,12.28-3.48,21.07-2.42,18.9,2.21,22.64,14,21.92,18.94s-4.67,7.65-6,8.5-1.74,1.1-1.61,1.7c.17.89.76.85,1.91.68,1.57-.25,9.94-4,10.28-13.12.51-11.68-10.58-24.42-30.24-24.3ZM94.77,150.74c-6.24,6.84-15,9.43-18.77,7.22-4-2.34-2.46-12.4,5.22-19.67A99.94,99.94,0,0,1,96,127.3c.89-.55,2.25-1.36,3.87-2.34a4.41,4.41,0,0,1,.42-.25c.3-.17.64-.38,1-.59a27.09,27.09,0,0,1-6.46,26.63Zm45.66-31c-2.17,5.31-6.75,18.94-9.51,18.18-2.38-.64-3.82-11-.47-21.15a47.22,47.22,0,0,1,7.43-13.63c3.44-3.82,7.18-5.1,8.11-3.53C147.1,101.6,141.79,116.38,140.43,119.69Zm37.68,18c-.93.47-1.78.81-2.17.55s.38-.81.38-.81,4.71-5.05,6.58-7.39c1.06-1.36,2.34-2.93,3.7-4.71v.51C186.6,132,180.74,136,178.1,137.7Zm29.05-6.63c-.68-.51-.59-2.08,1.7-7a26.26,26.26,0,0,1,6.46-8.33,10.52,10.52,0,0,1,.64,3.65C215.91,127,210.47,129.89,207.16,131.08Z"/></svg>