<svg id="Lag_1" data-name="Lag 1" xmlns="http://www.w3.org/2000/svg" viewBox="0 0 301.54 179"><defs><style>.cls-1{fill:#172134;}</style></defs><title>logo_design_portfolio_second</title><path class="cls-1" d="M301.54,100.22c-1.57,2.83-1.32,6.06-1.9,9.1-6,31.31-29.14,53.85-60.62,59a100.66,100.66,0,0,1-16.55,1.35q-28.55-.09-57.11,0c-2,0-3.29-.06-3.28-2.78q.13-77.84.08-155.68a6.46,6.46,0,0,1,.07-.68q29.64-.07,59.28-.16c1.28,0,2.73.58,3.83-.65h2.72c2.21,1.42,4.79.89,7.16,1.17C268,14.79,291.63,35.94,299,68c1,4.14,1,8.44,2.5,12.46v2.72a22.81,22.81,0,0,0,0,12.25ZM199.38,89.63c0,14.62.07,29.24-.06,43.85,0,2.73.56,3.74,3.5,3.64,6.91-.22,13.83,0,20.73-.1,15.65-.33,27.49-7.25,34.37-21.38,7.8-16,8-32.67,1.4-49.07-6-14.82-17.55-22.49-33.48-23.75-7.7-.61-15.4-.11-23.09-.41-2.64-.1-3.47.61-3.45,3.36C199.45,60.39,199.38,75,199.38,89.63Z"/><path class="cls-1" d="M225.33,9.71c-1.1,1.23-2.55.64-3.83.65q-29.64.13-59.28.16L162,9.71Z"/><path class="cls-1" d="M109,10.43l0-.72h40.15c0,.55-.06,1.09-.63,1.39-.73-1-1.84-.7-2.81-.7Q127.34,10.4,109,10.43Z"/><path class="cls-1" d="M39.56,9.71a2.21,2.21,0,0,1,.08.57L0,10.34a.83.83,0,0,1,0-.63Z"/><path class="cls-1" d="M301.54,95.46a22.81,22.81,0,0,1,0-12.25Z"/><path class="cls-1" d="M0,10.34l39.6-.05Q56,36.08,72.45,61.86c.6.93,1,2.08,2.21,2.73L109,10.43q18.34,0,36.67,0c1,0,2.07-.34,2.81.7Q122,49.86,95.51,88.57c-1.34,1.94-1.22,3.14.05,5q24.57,35.92,49,71.94c.81,1.19,1.55,2.42,2.64,4.13H135.94c-8.62,0-17.24-.07-25.86.05a4.39,4.39,0,0,1-4.33-2.41q-14.5-23.41-29.16-46.72c-.64-1-1.33-2-2.21-3.37-3.52,5.61-6.9,11-10.25,16.32Q53.6,150.36,43.07,167.23c-.78,1.25-1.37,2.45-3.27,2.44-12.58-.08-25.17,0-37.83,0,0-1.77,1.21-2.76,2-3.92Q28.49,129.56,53.14,93.5c1.34-2,1.21-3.15-.07-5Q27.65,51.5,2.4,14.4C1.52,13.11.29,12,0,10.34Z"/></svg>